<?xml version="1.0" standalone="no"?>
<!DOCTYPE svg PUBLIC "-//W3C//DTD SVG 20010904//EN"
 "http://www.w3.org/TR/2001/REC-SVG-20010904/DTD/svg10.dtd">
<svg version="1.0" xmlns="http://www.w3.org/2000/svg"
 width="128.000000pt" height="128.000000pt" viewBox="0 0 128.000000 128.000000"
 preserveAspectRatio="xMidYMid meet">

<g transform="translate(0.000000,128.000000) scale(0.100000,-0.100000)"
fill="#000000" stroke="none">
<path d="M415 1142 c-19 -35 -23 -37 -72 -40 -29 -2 -53 -6 -53 -9 0 -3 10
-23 22 -44 l22 -39 -22 -45 -22 -45 50 0 c46 0 51 -2 66 -32 31 -61 34 -62 65
-13 27 42 31 45 74 45 25 0 45 2 45 6 0 3 -10 22 -22 43 l-22 38 28 46 27 47
-55 0 c-53 0 -55 1 -77 40 -13 22 -25 40 -28 40 -3 0 -15 -17 -26 -38z m43
-30 c2 -7 -5 -12 -17 -12 -14 0 -19 5 -14 15 6 17 25 15 31 -3z m-94 -57 c-4
-8 -10 -15 -14 -15 -4 0 -10 7 -14 15 -4 10 1 15 14 15 13 0 18 -5 14 -15z
m138 -19 c15 -31 15 -35 -3 -65 -16 -26 -25 -31 -59 -31 -34 0 -42 4 -55 30
-19 37 -19 45 1 75 13 20 25 25 58 25 38 0 44 -3 58 -34z m46 22 c-6 -18 -25
-20 -31 -3 -5 10 0 15 14 15 12 0 19 -5 17 -12z m-180 -106 c2 -7 -6 -12 -17
-12 -21 0 -27 11 -14 24 9 9 26 2 31 -12z m180 0 c2 -7 -3 -12 -12 -12 -9 0
-16 7 -16 16 0 17 22 14 28 -4z m-94 -40 c2 -4 0 -14 -5 -22 -8 -13 -10 -13
-18 0 -10 15 -6 30 9 30 5 0 11 -4 14 -8z"/>
<path d="M156 784 c-3 -9 -6 -125 -6 -258 0 -195 3 -246 14 -262 12 -15 18
-17 33 -8 16 10 18 30 21 193 1 99 6 181 10 181 4 0 44 -76 89 -168 84 -173
100 -196 125 -187 8 3 55 88 104 188 l89 182 5 -187 c5 -197 12 -224 48 -202
15 10 17 36 17 275 l0 264 -26 3 c-24 3 -31 -10 -132 -218 -58 -121 -110 -220
-114 -219 -4 0 -56 99 -115 220 -96 195 -110 219 -132 219 -13 0 -27 -7 -30
-16z"/>
<path d="M950 624 c-79 -34 -114 -96 -108 -194 3 -55 9 -74 32 -105 36 -47 96
-75 161 -75 63 0 135 31 135 59 0 28 -19 30 -65 10 -48 -22 -85 -24 -129 -5
-37 15 -76 60 -76 87 0 17 12 19 148 21 l147 3 0 50 c-1 124 -127 200 -245
149z m125 -48 c33 -14 65 -59 65 -91 0 -13 -18 -15 -120 -15 -110 0 -120 1
-120 19 0 41 71 99 123 101 10 0 33 -6 52 -14z"/>
</g>
</svg>
